<svg width="48" height="48" viewBox="0 0 48 48" fill="none" xmlns="http://www.w3.org/2000/svg">
<circle cx="24" cy="24" r="24" fill="#3A17E8"/>
<path d="M15.531 19.223C15.7737 19.2577 15.9383 19.3313 16.025 19.444C16.1203 19.5567 16.168 19.704 16.168 19.886C16.168 20.484 15.8473 20.7613 15.206 20.718L14.751 20.679C14.2397 20.6357 13.7283 20.601 13.217 20.575C12.7143 20.549 12.1857 20.536 11.631 20.536H11.046C10.942 21.8187 10.8337 22.9887 10.721 24.046L12.957 24.007C13.2777 24.007 13.49 24.0633 13.594 24.176C13.7067 24.2887 13.763 24.4403 13.763 24.631C13.763 24.9257 13.6763 25.1597 13.503 25.333C13.3297 25.4977 13.0827 25.58 12.762 25.58H10.539L10.461 26.139C10.279 27.569 9.889 28.5873 9.291 29.194C8.70167 29.8007 7.887 30.104 6.847 30.104C6.25767 30.104 5.716 29.9783 5.222 29.727C4.728 29.467 4.364 29.155 4.13 28.791C4.03467 28.6437 3.987 28.466 3.987 28.258C3.987 28.05 4.03467 27.868 4.13 27.712C4.234 27.556 4.35967 27.478 4.507 27.478C4.611 27.478 4.71067 27.5127 4.806 27.582C4.91 27.6513 5.04 27.7857 5.196 27.985C5.612 28.531 6.12767 28.804 6.743 28.804C7.237 28.804 7.64867 28.6047 7.978 28.206C8.316 27.7987 8.53267 27.1617 8.628 26.295L8.706 25.58H8.082C7.88267 25.58 7.70933 25.5237 7.562 25.411C7.42333 25.2983 7.354 25.138 7.354 24.93C7.354 24.6613 7.42333 24.4577 7.562 24.319C7.70067 24.1717 7.90433 24.098 8.173 24.098C8.41567 24.098 8.654 24.0937 8.888 24.085C8.992 23.1317 9.10467 21.9747 9.226 20.614C8.29 20.7007 7.63133 20.8523 7.25 21.069C6.86867 21.2857 6.678 21.6063 6.678 22.031C6.678 22.3257 6.76467 22.6073 6.938 22.876C6.99 22.954 7.016 23.032 7.016 23.11C7.016 23.266 6.92933 23.4047 6.756 23.526C6.58267 23.6387 6.38767 23.695 6.171 23.695C5.937 23.695 5.73767 23.6257 5.573 23.487C5.469 23.4003 5.36933 23.2227 5.274 22.954C5.17867 22.6853 5.131 22.3863 5.131 22.057C5.131 20.9823 5.68133 20.2023 6.782 19.717C7.89133 19.2317 9.50767 18.989 11.631 18.989C13.1043 18.989 14.4043 19.067 15.531 19.223ZM15.0209 30.065C14.4835 30.065 14.0545 29.87 13.7339 29.48C13.4132 29.09 13.2529 28.5787 13.2529 27.946C13.2529 27.2527 13.4132 26.5983 13.7339 25.983C14.0545 25.359 14.4792 24.8607 15.0079 24.488C15.5452 24.1067 16.1129 23.916 16.7109 23.916C16.9015 23.916 17.0272 23.955 17.0879 24.033C17.1572 24.1023 17.2135 24.2323 17.2569 24.423C17.4389 24.3883 17.6295 24.371 17.8289 24.371C18.2535 24.371 18.4659 24.5227 18.4659 24.826C18.4659 25.008 18.4009 25.4413 18.2709 26.126C18.0715 27.1227 17.9719 27.816 17.9719 28.206C17.9719 28.336 18.0022 28.44 18.0629 28.518C18.1322 28.596 18.2189 28.635 18.3229 28.635C18.4875 28.635 18.6869 28.531 18.9209 28.323C19.1549 28.1063 19.4712 27.7597 19.8699 27.283C19.9739 27.1617 20.0909 27.101 20.2209 27.101C20.3335 27.101 20.4202 27.153 20.4809 27.257C20.5502 27.361 20.5849 27.504 20.5849 27.686C20.5849 28.0327 20.5025 28.3013 20.3379 28.492C19.9825 28.934 19.6055 29.3067 19.2069 29.61C18.8082 29.9133 18.4225 30.065 18.0499 30.065C17.7639 30.065 17.4995 29.9697 17.2569 29.779C17.0229 29.5797 16.8452 29.311 16.7239 28.973C16.2732 29.701 15.7055 30.065 15.0209 30.065ZM15.4889 28.752C15.6795 28.752 15.8615 28.6393 16.0349 28.414C16.2082 28.1887 16.3339 27.8897 16.4119 27.517L16.8929 25.125C16.5289 25.1337 16.1909 25.2723 15.8789 25.541C15.5755 25.801 15.3329 26.1477 15.1509 26.581C14.9689 27.0143 14.8779 27.4737 14.8779 27.959C14.8779 28.2277 14.9299 28.427 15.0339 28.557C15.1465 28.687 15.2982 28.752 15.4889 28.752ZM20.4513 30.065C20.122 30.065 19.888 29.8917 19.7493 29.545C19.6193 29.1983 19.5543 28.6437 19.5543 27.881C19.5543 26.7543 19.7146 25.684 20.0353 24.67C20.1133 24.4187 20.239 24.2367 20.4123 24.124C20.5943 24.0027 20.8456 23.942 21.1663 23.942C21.3396 23.942 21.461 23.9637 21.5303 24.007C21.5996 24.0503 21.6343 24.1327 21.6343 24.254C21.6343 24.3927 21.5693 24.7047 21.4393 25.19C21.3526 25.5367 21.2833 25.84 21.2313 26.1C21.1793 26.36 21.136 26.6807 21.1013 27.062C21.3873 26.3167 21.708 25.71 22.0633 25.242C22.4186 24.774 22.7653 24.4403 23.1033 24.241C23.45 24.0417 23.7663 23.942 24.0523 23.942C24.6156 23.942 24.8973 24.2237 24.8973 24.787C24.8973 24.8997 24.8583 25.1727 24.7803 25.606C24.711 25.9527 24.6763 26.1693 24.6763 26.256C24.6763 26.5593 24.7846 26.711 25.0013 26.711C25.244 26.711 25.556 26.5203 25.9373 26.139C26.05 26.0263 26.167 25.97 26.2883 25.97C26.401 25.97 26.4876 26.022 26.5483 26.126C26.6176 26.2213 26.6523 26.3513 26.6523 26.516C26.6523 26.8367 26.5656 27.088 26.3923 27.27C26.1496 27.5213 25.8636 27.738 25.5343 27.92C25.2136 28.0933 24.8713 28.18 24.5073 28.18C24.048 28.18 23.697 28.063 23.4543 27.829C23.2203 27.595 23.1033 27.2787 23.1033 26.88C23.1033 26.75 23.1163 26.62 23.1423 26.49C23.1596 26.3167 23.1683 26.1997 23.1683 26.139C23.1683 26.0003 23.1206 25.931 23.0253 25.931C22.8953 25.931 22.722 26.0783 22.5053 26.373C22.2973 26.659 22.0893 27.0403 21.8813 27.517C21.6733 27.9937 21.5043 28.4963 21.3743 29.025C21.279 29.4323 21.1663 29.7097 21.0363 29.857C20.915 29.9957 20.72 30.065 20.4513 30.065ZM32.6593 27.101C32.772 27.101 32.8586 27.153 32.9193 27.257C32.9886 27.361 33.0233 27.504 33.0233 27.686C33.0233 28.0327 32.941 28.3013 32.7763 28.492C32.3776 28.9513 31.966 29.3283 31.5413 29.623C31.1253 29.9177 30.6486 30.065 30.1113 30.065C29.6693 30.065 29.3356 29.9393 29.1103 29.688C28.885 29.428 28.7723 29.0553 28.7723 28.57C28.7723 28.3273 28.833 27.894 28.9543 27.27C29.067 26.724 29.1233 26.347 29.1233 26.139C29.1233 26.0003 29.0756 25.931 28.9803 25.931C28.8676 25.931 28.7073 26.0783 28.4993 26.373C28.2913 26.659 28.0833 27.0403 27.8753 27.517C27.6673 27.9937 27.4983 28.4963 27.3683 29.025C27.2036 29.7183 26.7963 30.065 26.1463 30.065C25.8863 30.065 25.713 29.974 25.6263 29.792C25.5483 29.6013 25.5093 29.2633 25.5093 28.778C25.5093 28.5007 25.5136 28.2797 25.5223 28.115L25.5353 27.075C25.5353 25.7403 25.6696 24.3493 25.9383 22.902C26.2156 21.4547 26.6186 20.2413 27.1473 19.262C27.6846 18.274 28.326 17.78 29.0713 17.78C29.47 17.78 29.7906 17.9533 30.0333 18.3C30.2846 18.638 30.4103 19.08 30.4103 19.626C30.4103 20.5013 30.1546 21.4113 29.6433 22.356C29.132 23.292 28.3 24.3883 27.1473 25.645C27.1213 26.0957 27.1083 26.5593 27.1083 27.036C27.3943 26.2993 27.7106 25.7013 28.0573 25.242C28.4126 24.774 28.7593 24.4403 29.0973 24.241C29.444 24.0417 29.7603 23.942 30.0463 23.942C30.6096 23.942 30.8913 24.2237 30.8913 24.787C30.8913 25.125 30.796 25.736 30.6053 26.62C30.4406 27.374 30.3583 27.8723 30.3583 28.115C30.3583 28.4617 30.484 28.635 30.7353 28.635C30.9086 28.635 31.1123 28.531 31.3463 28.323C31.589 28.1063 31.9096 27.7597 32.3083 27.283C32.4123 27.1617 32.5293 27.101 32.6593 27.101ZM28.7983 19.067C28.6423 19.067 28.469 19.2923 28.2783 19.743C28.0876 20.185 27.9013 20.7873 27.7193 21.55C27.546 22.304 27.403 23.1273 27.2903 24.02C27.8276 23.3873 28.2696 22.6983 28.6163 21.953C28.9716 21.2077 29.1493 20.5317 29.1493 19.925C29.1493 19.6477 29.119 19.4353 29.0583 19.288C28.9976 19.1407 28.911 19.067 28.7983 19.067ZM33.5687 30.065C33.0314 30.065 32.6024 29.87 32.2817 29.48C31.961 29.09 31.8007 28.5787 31.8007 27.946C31.8007 27.2527 31.961 26.5983 32.2817 25.983C32.6024 25.359 33.027 24.8607 33.5557 24.488C34.093 24.1067 34.6607 23.916 35.2587 23.916C35.4494 23.916 35.575 23.955 35.6357 24.033C35.705 24.1023 35.7614 24.2323 35.8047 24.423C35.9867 24.3883 36.1774 24.371 36.3767 24.371C36.8014 24.371 37.0137 24.5227 37.0137 24.826C37.0137 25.008 36.9487 25.4413 36.8187 26.126C36.6194 27.1227 36.5197 27.816 36.5197 28.206C36.5197 28.336 36.55 28.44 36.6107 28.518C36.68 28.596 36.7667 28.635 36.8707 28.635C37.0354 28.635 37.2347 28.531 37.4687 28.323C37.7027 28.1063 38.019 27.7597 38.4177 27.283C38.5217 27.1617 38.6387 27.101 38.7687 27.101C38.8814 27.101 38.968 27.153 39.0287 27.257C39.098 27.361 39.1327 27.504 39.1327 27.686C39.1327 28.0327 39.0504 28.3013 38.8857 28.492C38.5304 28.934 38.1534 29.3067 37.7547 29.61C37.356 29.9133 36.9704 30.065 36.5977 30.065C36.3117 30.065 36.0474 29.9697 35.8047 29.779C35.5707 29.5797 35.393 29.311 35.2717 28.973C34.821 29.701 34.2534 30.065 33.5687 30.065ZM34.0367 28.752C34.2274 28.752 34.4094 28.6393 34.5827 28.414C34.756 28.1887 34.8817 27.8897 34.9597 27.517L35.4407 25.125C35.0767 25.1337 34.7387 25.2723 34.4267 25.541C34.1234 25.801 33.8807 26.1477 33.6987 26.581C33.5167 27.0143 33.4257 27.4737 33.4257 27.959C33.4257 28.2277 33.4777 28.427 33.5817 28.557C33.6944 28.687 33.846 28.752 34.0367 28.752ZM38.9991 30.065C38.6698 30.065 38.4358 29.8917 38.2971 29.545C38.1671 29.1983 38.1021 28.6437 38.1021 27.881C38.1021 26.7543 38.2625 25.684 38.5831 24.67C38.6611 24.4187 38.7868 24.2367 38.9601 24.124C39.1421 24.0027 39.3935 23.942 39.7141 23.942C39.8875 23.942 40.0088 23.9637 40.0781 24.007C40.1475 24.0503 40.1821 24.1327 40.1821 24.254C40.1821 24.3927 40.1171 24.7047 39.9871 25.19C39.9005 25.5367 39.8311 25.84 39.7791 26.1C39.7271 26.36 39.6838 26.6807 39.6491 27.062C39.9351 26.3167 40.2558 25.71 40.6111 25.242C40.9665 24.774 41.3131 24.4403 41.6511 24.241C41.9978 24.0417 42.3141 23.942 42.6001 23.942C42.8775 23.942 43.0855 24.0157 43.2241 24.163C43.3715 24.3017 43.4451 24.5097 43.4451 24.787C43.4451 25.0123 43.3975 25.437 43.3021 26.061C43.2155 26.5897 43.1461 27.0923 43.0941 27.569C43.0421 28.037 43.0161 28.5613 43.0161 29.142C43.0161 29.4713 42.9468 29.7097 42.8081 29.857C42.6781 29.9957 42.4615 30.065 42.1581 30.065C41.8721 30.065 41.6641 29.9913 41.5341 29.844C41.4041 29.6967 41.3391 29.4757 41.3391 29.181C41.3391 28.8343 41.3998 28.2623 41.5211 27.465C41.6251 26.7717 41.6771 26.3297 41.6771 26.139C41.6771 26.0003 41.6295 25.931 41.5341 25.931C41.4215 25.931 41.2611 26.0783 41.0531 26.373C40.8538 26.659 40.6458 27.0403 40.4291 27.517C40.2211 27.9937 40.0521 28.4963 39.9221 29.025C39.8268 29.4323 39.7141 29.7097 39.5841 29.857C39.4628 29.9957 39.2678 30.065 38.9991 30.065Z" fill="white"/>
</svg>
